<?xml version="1.0" encoding="utf-8"?>
<!-- Generator: Adobe Illustrator 22.1.0, SVG Export Plug-In . SVG Version: 6.00 Build 0)  -->
<svg version="1.1" id="Layer_1" xmlns="http://www.w3.org/2000/svg" xmlns:xlink="http://www.w3.org/1999/xlink" x="0px" y="0px"
	 viewBox="0 0 599.9 139.2" style="enable-background:new 0 0 599.9 139.2;" xml:space="preserve">
<style type="text/css">
	.st0{fill:#FF0060;}
	.st1{fill:#007BFF;}
</style>
<g>
	<path class="st0" d="M320.2,106.3h-25.5l-14.8-25.9h0L265,106.3h-25.5l24.4-35.8l-22.9-36.2h25.8c0,0,12.6,25.1,13.2,27
		c0.6-1.8,13.2-27,13.2-27h25.8l-22.9,36.2L320.2,106.3z"/>
	<path class="st1" d="M49.9,105.2c-3.3,1.7-7.8,3-14.5,3c-15.7,0-23.5-8.3-23.5-24.6V50.2H0v-16h11.9V18.6l21.9-6.3v22h16v16h-16
		v29.4c0,7.5,3,11.3,8.9,11.3c2.3,0,4.6-0.9,7.1-2.2V105.2z M599.9,105.2c-3.3,1.7-7.8,3-14.5,3c-15.7,0-23.5-8.3-23.5-24.6V50.2
		H550v-16h11.9V18.6l21.9-6.3v22h16v16h-16v29.4c0,7.5,3,11.3,8.9,11.3c2.3,0,4.6-0.9,7.1-2.2V105.2z M109.9,54.3
		c-2.7-1.5-5.8-2.2-9.3-2.2c-4.8,0-8.6,1.8-11.3,5.3c-2.7,3.5-4.3,8.4-4.3,14.5v34.3h-22v-72h22v13.4h0.5c3.5-9.8,9.9-14.4,19-14.4
		c2.3,0,4.2,0,5.5,0.6V54.3z M541.9,54.3c-2.7-1.5-5.8-2.2-9.3-2.2c-4.8,0-8.6,1.8-11.3,5.3c-2.7,3.5-4.3,8.4-4.3,14.5l0,34.3h-22
		l0-72h22v13.4h0.5c3.5-9.8,9.9-14.4,19.1-14.4c2.3,0,4.1,0,5.4,0.6V54.3z M132,22.9c-3.8,0-6.8-1.1-9.2-3.3c-2.4-2.2-3.6-5-3.6-8.2
		c0-3.3,1.2-6.1,3.6-8.2c2.4-2.1,5.5-3.2,9.2-3.2c3.8,0,6.9,1.1,9.3,3.2c2.4,2.1,3.6,4.8,3.6,8.2c0,3.4-1.2,6.1-3.6,8.3
		C138.9,21.8,135.8,22.9,132,22.9z M142.9,106.2l-22,0v-72l22,0V106.2z M184.3,98h-0.4v41.3l-22,0v-105h22v10.8h0.4
		c5.5-8.4,13.2-12.6,23.2-12.6c9.3,0,16.6,3.2,21.6,9.6c5.1,6.4,7.6,15.1,7.6,26.1c0,12-3,21.7-8.9,28.9
		c-5.9,7.3-13.8,10.9-23.7,10.9C195.4,108.1,188.8,104.7,184.3,98z M183.6,68.4v5.8c0,5,1.3,9,3.9,12.2c2.6,3.1,6.1,4.7,10.3,4.7
		c5.1,0,9-2,11.8-5.9c2.8-3.9,4.2-9.5,4.2-16.6c0-12.7-4.9-19-14.8-19c-4.6,0-8.3,1.7-11.2,5.2C185.1,58.2,183.6,62.7,183.6,68.4z
		 M350.3,98h-0.4v41.3l-22,0v-105h22v10.8h0.4c5.5-8.4,13.2-12.6,23.2-12.6c9.3,0,16.6,3.2,21.6,9.6c5.1,6.4,7.6,15.1,7.6,26.1
		c0,12-3,21.7-8.9,28.9c-5.9,7.3-13.8,10.9-23.7,10.9C361.4,108.1,354.8,104.7,350.3,98z M349.6,68.4v5.8c0,5,1.3,9,3.9,12.2
		c2.6,3.1,6.1,4.7,10.3,4.7c5.1,0,9-2,11.8-5.9c2.8-3.9,4.2-9.5,4.2-16.6c0-12.7-4.9-19-14.8-19c-4.6,0-8.3,1.7-11.2,5.2
		S349.6,62.7,349.6,68.4z M481.8,76.2h-46.7c0.7,10.5,7.2,16.1,19.6,16.1c7.9,0,15.2-2.1,21.2-5.9v16c-6.7,3.6-15.6,5.6-26.2,5.6
		c-11.6,0-20.7-3.2-27.1-9.7c-6.4-6.5-9.6-15.4-9.6-27c0-12,3.5-21.4,10.4-28.4c6.9-7,15.5-10.5,25.6-10.5c10.5,0,18.6,3.1,24.4,9.4
		c5.7,6.2,8.5,14.7,8.5,25.4L481.8,76.2z M461.9,63.3c0-10.3-4.8-16-13.2-16c-3.6,0-6.7,1.7-9.3,4.7c-2.6,3-4.2,7-4.7,11.4H461.9z"
		/>
</g>
</svg>
