<?xml version="1.0" encoding="utf-8"?>
<!-- Generator: Adobe Illustrator 22.1.0, SVG Export Plug-In . SVG Version: 6.00 Build 0)  -->
<svg version="1.1" id="Layer_1" xmlns="http://www.w3.org/2000/svg" xmlns:xlink="http://www.w3.org/1999/xlink" x="0px" y="0px"
	 viewBox="0 0 24 24" style="enable-background:new 0 0 24 24;" xml:space="preserve">
<style type="text/css">
	.st0{fill-rule:evenodd;clip-rule:evenodd;fill:#181616;}
</style>
<path class="st0" d="M24,12c0,5.3-3.4,9.8-8.2,11.4c-0.6,0.1-0.8-0.3-0.8-0.6c0-0.4,0-1.7,0-3.3c0-1.1-0.4-1.9-0.8-2.2
	c2.7-0.3,5.5-1.3,5.5-5.9c0-1.3-0.5-2.4-1.2-3.2C18.5,7.8,19,6.6,18.3,5c0,0-1-0.3-3.3,1.2c-1-0.3-2-0.4-3-0.4c-1,0-2,0.1-3,0.4
	C6.7,4.7,5.7,5,5.7,5C5,6.6,5.5,7.8,5.6,8.2C4.8,9,4.3,10.1,4.3,11.4c0,4.6,2.8,5.6,5.5,5.9c-0.3,0.3-0.7,0.8-0.8,1.6
	c-0.7,0.3-2.4,0.8-3.5-1c0,0-0.6-1.2-1.8-1.2c0,0-1.2,0-0.1,0.7c0,0,0.8,0.4,1.3,1.8c0,0,0.7,2.3,4,1.6c0,1,0,1.8,0,2
	c0,0.3-0.2,0.7-0.8,0.6C3.4,21.8,0,17.3,0,12C0,5.4,5.4,0,12,0C18.6,0,24,5.4,24,12z"/>
</svg>
