<?xml version="1.0" encoding="utf-8"?>
<!-- Generator: Adobe Illustrator 17.1.0, SVG Export Plug-In . SVG Version: 6.00 Build 0)  -->
<!DOCTYPE svg PUBLIC "-//W3C//DTD SVG 1.1//EN" "http://www.w3.org/Graphics/SVG/1.1/DTD/svg11.dtd">
<svg version="1.1" id="Layer_1" xmlns="http://www.w3.org/2000/svg" xmlns:xlink="http://www.w3.org/1999/xlink" x="0px" y="0px"
	 viewBox="0 0 512 512" enable-background="new 0 0 512 512" xml:space="preserve">
<path fill="#010101" d="M256,0C114.6,0,0,114.6,0,256c0,141.4,114.6,256,256,256s256-114.6,256-256C512,114.6,397.4,0,256,0z
	 M256,469.3c-117.8,0-213.3-95.5-213.3-213.3c0-117.8,95.5-213.3,213.3-213.3S469.3,138.2,469.3,256
	C469.3,373.8,373.8,469.3,256,469.3z M287.9,128.1c0,17.6-14.3,31.9-31.9,31.9S224,145.7,224,128.1s14.3-31.9,31.9-31.9
	S287.9,110.4,287.9,128.1z M320,384H192v-13.1c3.1-0.2,11.7-0.5,14.7-0.9c3-0.4,5.6-1,7.7-1.8c3.8-1.4,6.5-3.5,8.1-6.2
	c1.5-2.7,1.5-5.6,1.5-10.1c0,0,0-125.4,0-128s-6.4-11.5-32-11.2c0,7,0-20.8,0-20.8h93.3l2.7,2.7V352c0,6.7,3.7,12.3,10.3,15.5
	c6.5,3.1,17,3.3,21.7,3.4V384z"/>
</svg>
